<svg width="80" height="81" viewBox="0 0 80 81" fill="none" xmlns="http://www.w3.org/2000/svg">
<rect y="0.291504" width="80" height="80" rx="10" fill="#383E45"/>
<path d="M24.8529 57.093L21.4824 19.2915H58.5174L55.1424 57.087L39.9774 61.2915L24.8529 57.093Z" fill="#E44F26"/>
<path d="M40 58.0783L52.255 54.6808L55.138 22.3828H40V58.0783Z" fill="#F1662A"/>
<path d="M40 36.4021H33.865L33.442 31.6546H40V27.0181H28.375L28.486 28.2631L29.6245 41.0386H40V36.4021ZM40 48.4426L39.979 48.4486L34.816 47.0551L34.486 43.3576H29.8315L30.481 50.6356L39.979 53.2726L40 53.2666V48.4426Z" fill="#EBEBEB"/>
<path d="M39.9834 36.4021V41.0386H45.6924L45.1554 47.0521L39.9834 48.4471V53.2711L49.4889 50.6356L49.5579 49.8526L50.6469 37.6471L50.7609 36.4021H39.9834ZM39.9834 27.0181V31.6546H51.1824L51.2754 30.6136L51.4869 28.2631L51.5979 27.0181H39.9834Z" fill="white"/>
</svg>
