<svg width="80" height="81" viewBox="0 0 80 81" fill="none" xmlns="http://www.w3.org/2000/svg">
<rect y="0.291504" width="80" height="80" rx="10" fill="#383E45"/>
<path d="M24.8529 57.093L21.4839 19.2915H58.5159L55.1424 57.087L39.9774 61.2915L24.8529 57.093Z" fill="#1572B6"/>
<path d="M40 58.0783L52.255 54.6808L55.138 22.3828H40V58.0783Z" fill="#33A9DC"/>
<path d="M40 36.0778H46.135L46.558 31.3303H40V26.6938H51.625L51.514 27.9373L50.3755 40.7143H40V36.0778Z" fill="white"/>
<path d="M40.0284 48.1187L40.0074 48.1247L34.8444 46.7297L34.5144 43.0322H29.8599L30.5094 50.3117L40.0059 52.9487L40.0284 52.9427V48.1187Z" fill="#EBEBEB"/>
<path d="M45.7407 40.5181L45.1827 46.7266L40.0122 48.1216V52.9456L49.5162 50.3116L49.5867 49.5286L50.3922 40.5181H45.7407Z" fill="white"/>
<path d="M40.0164 26.6938V31.3303H28.8174L28.7244 30.2878L28.5129 27.9373L28.4019 26.6938H40.0164ZM39.9999 36.0778V40.7143H34.9014L34.8084 39.6718L34.5984 37.3213L34.4874 36.0778H39.9999Z" fill="#EBEBEB"/>
</svg>
