<svg width="80" height="81" viewBox="0 0 80 81" fill="none" xmlns="http://www.w3.org/2000/svg">
<rect y="0.291504" width="80" height="80" rx="10" fill="#383E45"/>
<g clip-path="url(#clip0_91_174)">
<path d="M16 16.2915H64V64.2915H16V16.2915Z" fill="#F7DF1E"/>
<path d="M28.6208 56.4039L32.2939 54.1809C33.0027 55.4373 33.6473 56.5004 35.1936 56.5004C36.6758 56.5004 37.6105 55.9207 37.6105 53.6654V38.3283H42.1212V53.7292C42.1212 58.4011 39.3825 60.5277 35.3869 60.5277C31.7785 60.5277 29.6839 58.6589 28.6206 56.4035L28.6208 56.4039ZM44.5712 55.9205L48.244 53.7941C49.2109 55.373 50.4675 56.5329 52.6905 56.5329C54.5597 56.5329 55.7515 55.5984 55.7515 54.3095C55.7515 52.763 54.5271 52.2151 52.465 51.3132L51.3375 50.8295C48.0831 49.4444 45.9244 47.7044 45.9244 44.0313C45.9244 40.6481 48.502 38.0703 52.5297 38.0703C55.3973 38.0703 57.4594 39.0693 58.9414 41.6791L55.4292 43.9347C54.6557 42.5493 53.8183 42.0016 52.5295 42.0016C51.2083 42.0016 50.3706 42.8394 50.3706 43.9347C50.3706 45.2879 51.2084 45.836 53.1415 46.6737L54.2691 47.1569C58.1035 48.8004 60.2622 50.4757 60.2622 54.2452C60.2622 58.3053 57.0724 60.5283 52.7871 60.5283C48.5985 60.5283 45.892 58.5307 44.571 55.9207" fill="black"/>
</g>
<defs>
<clipPath id="clip0_91_174">
<rect width="48" height="48" fill="white" transform="translate(16 16.2915)"/>
</clipPath>
</defs>
</svg>
